# xmcd CD database file
#
# Track frame offsets:
#	150
#	15633
#	26000
#	42177
#	53865
#	69068
#	86817
#	105497
#	117651
#	132939
#	146884
#	162197
#	179846
#	190559
#	204831
#	218769
#	236167
#	253854
#	266073
#	278782
#	300895
#	311596
#	331105
#
# Disc length: 4645 seconds
#
# Revision: 0
# Processed by: cddbd v1.5.2PL0 Copyright (c) Steve Scherf et al.
# Submitted via: CDex 1.70beta2
#
DISCID=49122317
DTITLE=その他 - 和ジャズ・ベスト100 (Disc5)
DYEAR=2009
DGENRE=Jazz
TTITLE0=スターダスト
TTITLE1=歩いて帰ろう
TTITLE2=ペイパー・ムーン
TTITLE3=恋人よ我に帰れ
TTITLE4=ライト・ヒア・ライト・ナウ
TTITLE5=サニー
TTITLE6=ザ・ニアネス・オブ・ユー
TTITLE7=バット・ノット・フォー・ミー
TTITLE8=追憶
TTITLE9=サテン・ドール
TTITLE10=夜も昼も
TTITLE11=霧の日
TTITLE12=スウィングしなけりゃ意味ないね
TTITLE13=ハウ・ハイ・ザ・ムーン
TTITLE14=マイ・ワン・アンド・オンリー・ラヴ
TTITLE15=モナ・リザ
TTITLE16=そんなことなの
TTITLE17=イージー・トゥ・ラヴ
TTITLE18=シャイニー・ストッキングス
TTITLE19=アザー・ワールド
TTITLE20=コール・ミー・イレスポンシブル
TTITLE21=やさしい伴侶を
TTITLE22=A列車で行こう 2007
EXTD=YEAR: 2009
EXTT0=
EXTT1=
EXTT2=
EXTT3=
EXTT4=
EXTT5=
EXTT6=
EXTT7=
EXTT8=
EXTT9=
EXTT10=
EXTT11=
EXTT12=
EXTT13=
EXTT14=
EXTT15=
EXTT16=
EXTT17=
EXTT18=
EXTT19=
EXTT20=
EXTT21=
EXTT22=
PLAYORDER=
